<?xml version="1.0" ?>
<!DOCTYPE svg  PUBLIC '-//W3C//DTD SVG 1.1//EN'  'http://www.w3.org/Graphics/SVG/1.1/DTD/svg11.dtd'>
<!-- Uploaded to: SVG Repo, www.svgrepo.com, Generator: SVG Repo Mixer Tools -->
<svg width="800px" height="800px" viewBox="0 0 512 512" enable-background="new 0 0 512 512" id="Layer_1" version="1.1" xml:space="preserve" xmlns="http://www.w3.org/2000/svg" xmlns:xlink="http://www.w3.org/1999/xlink">
<g>
<g>
<path d="M420.057,342.273c0,7.322-5.936,13.257-13.257,13.257H105.2c-7.322,0-13.257-5.935-13.257-13.257v-85.067    c0-7.321,5.936-13.257,13.257-13.257h301.6c7.321,0,13.257,5.936,13.257,13.257V342.273z" fill="#DCB892"/>
<path d="M406.8,365.53H105.2c-12.824,0-23.257-10.433-23.257-23.257v-85.067c0-12.824,10.433-23.257,23.257-23.257    h301.6c12.824,0,23.257,10.433,23.257,23.257v85.067C430.057,355.097,419.624,365.53,406.8,365.53z M105.2,253.949    c-1.796,0-3.257,1.461-3.257,3.257v85.067c0,1.796,1.461,3.257,3.257,3.257h301.6c1.796,0,3.257-1.461,3.257-3.257v-85.067    c0-1.796-1.461-3.257-3.257-3.257H105.2z" fill="#444B54"/>
</g>
<g>
<path d="M155.098,309.739h-0.368c-5.523,0-10-4.477-10-10s4.477-10,10-10h0.368c5.523,0,10,4.477,10,10    S160.621,309.739,155.098,309.739z" fill="#444B54"/>
</g>
<g>
<path d="M348.615,309.739h-0.368c-5.523,0-10-4.477-10-10s4.477-10,10-10h0.368c5.523,0,10,4.477,10,10    S354.138,309.739,348.615,309.739z" fill="#444B54"/>
</g>
<g>
<path d="M406.8,365.53H105.2c-12.824,0-23.257-10.433-23.257-23.257v-85.067c0-12.824,10.433-23.257,23.257-23.257    h301.6c12.824,0,23.257,10.433,23.257,23.257v85.067C430.057,355.097,419.624,365.53,406.8,365.53z M105.2,253.949    c-1.796,0-3.257,1.461-3.257,3.257v85.067c0,1.796,1.461,3.257,3.257,3.257h301.6c1.796,0,3.257-1.461,3.257-3.257v-85.067    c0-1.796-1.461-3.257-3.257-3.257H105.2z" fill="#444B54"/>
</g>
<g>
<path d="M319.524,365.53H192.476c-5.523,0-10-4.477-10-10V243.949c0-5.523,4.477-10,10-10h127.048    c5.523,0,10,4.477,10,10V355.53C329.524,361.053,325.047,365.53,319.524,365.53z M202.476,345.53h107.048v-91.581H202.476V345.53z    " fill="#444B54"/>
</g>
<g>
<path d="M273.676,309.739h-35.353c-5.523,0-10-4.477-10-10s4.477-10,10-10h35.353c5.523,0,10,4.477,10,10    S279.199,309.739,273.676,309.739z" fill="#444B54"/>
</g>
<g>
<path d="M105.2,392.044c-5.523,0-10-4.477-10-10V355.53c0-5.523,4.477-10,10-10s10,4.477,10,10v26.514    C115.2,387.567,110.723,392.044,105.2,392.044z" fill="#444B54"/>
</g>
<g>
<path d="M409.009,392.044c-5.523,0-10-4.477-10-10V355.53c0-5.523,4.477-10,10-10s10,4.477,10,10v26.514    C419.009,387.567,414.532,392.044,409.009,392.044z" fill="#444B54"/>
</g>
<g>
<path d="M326.152,228.54H180.324c-5.523,0-10-4.477-10-10v-88.583c0-5.523,4.477-10,10-10h145.829    c5.523,0,10,4.477,10,10v88.583C336.152,224.063,331.675,228.54,326.152,228.54z M190.324,208.54h125.829v-68.583H190.324V208.54z    " fill="#444B54"/>
</g>
<g>
<path d="M284.191,253.949c-0.008-0.001-0.013,0-0.02,0h-63.524c-3.305,0-6.396-1.633-8.26-4.363    c-1.863-2.729-2.257-6.204-1.053-9.281l9.943-25.41c1.5-3.833,5.196-6.356,9.313-6.356h44.743c4.256,0,8.047,2.694,9.445,6.715    l8.625,24.797c0.507,1.198,0.788,2.515,0.788,3.897C294.191,249.472,289.714,253.949,284.191,253.949z M235.299,233.949h34.807    l-1.881-5.41h-30.809L235.299,233.949z" fill="#444B54"/>
</g>
<g>
<path d="M155.098,309.739h-0.368c-5.523,0-10-4.477-10-10s4.477-10,10-10h0.368c5.523,0,10,4.477,10,10    S160.621,309.739,155.098,309.739z" fill="#444B54"/>
</g>
<g>
<path d="M348.615,309.739h-0.368c-5.523,0-10-4.477-10-10s4.477-10,10-10h0.368c5.523,0,10,4.477,10,10    S354.138,309.739,348.615,309.739z" fill="#444B54"/>
</g>
<g>
<rect fill="#F16259" height="111.581" width="127.048" x="192.476" y="243.949"/>
<path d="M319.524,365.53H192.476c-5.523,0-10-4.477-10-10V243.949c0-5.523,4.477-10,10-10h127.048    c5.523,0,10,4.477,10,10V355.53C329.524,361.053,325.047,365.53,319.524,365.53z M202.476,345.53h107.048v-91.581H202.476V345.53z    " fill="#444B54"/>
</g>
<g>
<path d="M273.676,309.739h-35.353c-5.523,0-10-4.477-10-10s4.477-10,10-10h35.353c5.523,0,10,4.477,10,10    S279.199,309.739,273.676,309.739z" fill="#444B54"/>
</g>
<g>
<path d="M105.2,392.044c-5.523,0-10-4.477-10-10V355.53c0-5.523,4.477-10,10-10s10,4.477,10,10v26.514    C115.2,387.567,110.723,392.044,105.2,392.044z" fill="#444B54"/>
</g>
<g>
<path d="M409.009,392.044c-5.523,0-10-4.477-10-10V355.53c0-5.523,4.477-10,10-10s10,4.477,10,10v26.514    C419.009,387.567,414.532,392.044,409.009,392.044z" fill="#444B54"/>
</g>
<g>
<rect fill="#DCB892" height="88.583" width="145.829" x="180.324" y="129.956"/>
<path d="M326.152,228.54H180.324c-5.523,0-10-4.477-10-10v-88.583c0-5.523,4.477-10,10-10h145.829    c5.523,0,10,4.477,10,10v88.583C336.152,224.063,331.675,228.54,326.152,228.54z M190.324,208.54h125.829v-68.583H190.324V208.54z    " fill="#444B54"/>
</g>
<g>
<path d="M284.191,253.949c-0.008-0.001-0.013,0-0.02,0h-63.524c-3.305,0-6.396-1.633-8.26-4.363    c-1.863-2.729-2.257-6.204-1.053-9.281l9.943-25.41c1.5-3.833,5.196-6.356,9.313-6.356h44.743c4.256,0,8.047,2.694,9.445,6.715    l8.625,24.797c0.507,1.198,0.788,2.515,0.788,3.897C294.191,249.472,289.714,253.949,284.191,253.949z M235.299,233.949h34.807    l-1.881-5.41h-30.809L235.299,233.949z" fill="#444B54"/>
</g>
</g>
</svg>